<?xml version="1.0" encoding="UTF-8" standalone="no"?>
<!DOCTYPE svg PUBLIC "-//W3C//DTD SVG 1.1//EN"
 "http://www.w3.org/Graphics/SVG/1.1/DTD/svg11.dtd">
<!-- Generated by graphviz version 2.40.1 (20161225.0304)
 -->
<!-- Title: H Pages: 1 -->
<svg width="1429pt" height="1668pt"
 viewBox="0.00 0.00 1429.00 1668.40" xmlns="http://www.w3.org/2000/svg" xmlns:xlink="http://www.w3.org/1999/xlink">
<g id="graph0" class="graph" transform="scale(1 1) rotate(0) translate(4 1664.4)">
<title>H</title>
<polygon fill="#ffffff" stroke="transparent" points="-4,4 -4,-1664.4 1425,-1664.4 1425,4 -4,4"/>
<g id="clust1" class="cluster">
<title>cluster_codestruct</title>
<polygon fill="none" stroke="#000000" points="8,-8 8,-1652.4 1413,-1652.4 1413,-8 8,-8"/>
<text text-anchor="middle" x="710.5" y="-1635.8" font-family="Times,serif" font-size="14.00" fill="#000000">Basic Code Structure</text>
</g>
<g id="clust2" class="cluster">
<title>cluster_process</title>
<polygon fill="none" stroke="#000000" points="668,-1542.8 668,-1619.6 794,-1619.6 794,-1542.8 668,-1542.8"/>
<text text-anchor="middle" x="731" y="-1603" font-family="Times,serif" font-size="14.00" fill="#000000">Process</text>
</g>
<g id="clust3" class="cluster">
<title>cluster_data</title>
<polygon fill="none" stroke="#000000" points="417,-16 417,-1453.2 823,-1453.2 823,-16 417,-16"/>
<text text-anchor="middle" x="620" y="-1436.6" font-family="Times,serif" font-size="14.00" fill="#000000">Data</text>
</g>
<g id="clust4" class="cluster">
<title>cluster_coredata</title>
<polygon fill="none" stroke="#000000" points="425,-24 425,-1420.4 647,-1420.4 647,-24 425,-24"/>
<text text-anchor="middle" x="536" y="-1403.8" font-family="Times,serif" font-size="14.00" fill="#000000">Core Data</text>
</g>
<g id="clust5" class="cluster">
<title>cluster_platformdata</title>
<polygon fill="none" stroke="#000000" points="655,-211 655,-287.8 815,-287.8 815,-211 655,-211"/>
<text text-anchor="middle" x="735" y="-271.2" font-family="Times,serif" font-size="14.00" fill="#000000">Platform Data</text>
</g>
<g id="clust6" class="cluster">
<title>cluster_assets</title>
<polygon fill="none" stroke="#000000" points="16,-765.8 16,-1286.6 409,-1286.6 409,-765.8 16,-765.8"/>
<text text-anchor="middle" x="212.5" y="-1270" font-family="Times,serif" font-size="14.00" fill="#000000">Assets</text>
</g>
<g id="clust7" class="cluster">
<title>cluster_interface</title>
<polygon fill="none" stroke="#000000" points="831,-1098.8 831,-1420.4 1405,-1420.4 1405,-1098.8 831,-1098.8"/>
<text text-anchor="middle" x="1118" y="-1403.8" font-family="Times,serif" font-size="14.00" fill="#000000">Interface</text>
</g>
<!-- process_controller -->
<g id="node1" class="node">
<title>process_controller</title>
<polygon fill="none" stroke="#000000" points="786.4716,-1586.8 675.5284,-1586.8 675.5284,-1550.8 786.4716,-1550.8 786.4716,-1586.8"/>
<text text-anchor="middle" x="731" y="-1564.6" font-family="Times,serif" font-size="14.00" fill="#000000">Game Controller</text>
</g>
<!-- data_gamestate -->
<g id="node6" class="node">
<title>data_gamestate</title>
<polygon fill="none" stroke="#000000" points="639.4194,-1387.6 558.5806,-1387.6 558.5806,-1351.6 639.4194,-1351.6 639.4194,-1387.6"/>
<text text-anchor="middle" x="599" y="-1365.4" font-family="Times,serif" font-size="14.00" fill="#000000">Game State</text>
</g>
<!-- process_controller&#45;&gt;data_gamestate -->
<g id="edge24" class="edge">
<title>process_controller&#45;&gt;data_gamestate</title>
<path fill="none" stroke="#000000" stroke-dasharray="5,2" d="M719.0531,-1550.771C695.6989,-1515.5274 643.8972,-1437.354 616.6058,-1396.1687"/>
<polygon fill="#000000" stroke="#000000" points="619.4565,-1394.1344 611.015,-1387.7318 613.6213,-1398.0011 619.4565,-1394.1344"/>
</g>
<!-- asset_manager -->
<g id="node11" class="node">
<title>asset_manager</title>
<polygon fill="none" stroke="#000000" points="282.0655,-1253.8 175.9345,-1253.8 175.9345,-1217.8 282.0655,-1217.8 282.0655,-1253.8"/>
<text text-anchor="middle" x="229" y="-1231.6" font-family="Times,serif" font-size="14.00" fill="#000000">Asset Manager?</text>
</g>
<!-- process_controller&#45;&gt;asset_manager -->
<g id="edge26" class="edge">
<title>process_controller&#45;&gt;asset_manager</title>
<path fill="none" stroke="#000000" stroke-dasharray="1,5" d="M675.5694,-1565.1044C560.6392,-1556.697 307,-1533.9562 307,-1497 307,-1497 307,-1497 307,-1314.1 307,-1291.4705 290.4454,-1273.0733 272.5894,-1259.8116"/>
<polygon fill="#000000" stroke="#000000" points="274.5573,-1256.917 264.3485,-1254.083 270.5618,-1262.6647 274.5573,-1256.917"/>
<text text-anchor="middle" x="319.0526" y="-1365.4" font-family="Times,serif" font-size="14.00" fill="#000000">load</text>
</g>
<!-- ifc_page -->
<g id="node17" class="node">
<title>ifc_page</title>
<polygon fill="none" stroke="#000000" points="1044,-1387.6 990,-1387.6 990,-1351.6 1044,-1351.6 1044,-1387.6"/>
<text text-anchor="middle" x="1017" y="-1365.4" font-family="Times,serif" font-size="14.00" fill="#000000">Page</text>
</g>
<!-- process_controller&#45;&gt;ifc_page -->
<g id="edge25" class="edge">
<title>process_controller&#45;&gt;ifc_page</title>
<path fill="none" stroke="#000000" stroke-dasharray="1,5" d="M756.885,-1550.771C808.5466,-1514.7885 924.4558,-1434.0574 982.502,-1393.628"/>
<polygon fill="#000000" stroke="#000000" points="984.762,-1396.3192 990.9674,-1387.7318 980.7612,-1390.5752 984.762,-1396.3192"/>
<text text-anchor="middle" x="876.8282" y="-1492.8" font-family="Times,serif" font-size="14.00" fill="#000000">control</text>
</g>
<!-- data_nutrient -->
<g id="node2" class="node">
<title>data_nutrient</title>
<polygon fill="none" stroke="#000000" points="506.1546,-68 443.8454,-68 443.8454,-32 506.1546,-32 506.1546,-68"/>
<text text-anchor="middle" x="475" y="-45.8" font-family="Times,serif" font-size="14.00" fill="#000000">Nutrient</text>
</g>
<!-- data_nutrient_set -->
<g id="node3" class="node">
<title>data_nutrient_set</title>
<polygon fill="none" stroke="#000000" points="517.0414,-531 432.9586,-531 432.9586,-495 517.0414,-495 517.0414,-531"/>
<text text-anchor="middle" x="475" y="-508.8" font-family="Times,serif" font-size="14.00" fill="#000000">Nutrient Set</text>
</g>
<!-- data_nutrient_set&#45;&gt;data_nutrient -->
<g id="edge9" class="edge">
<title>data_nutrient_set&#45;&gt;data_nutrient</title>
<path fill="none" stroke="#000000" stroke-dasharray="5,2" d="M475,-494.5C475,-483.7083 475,-469.8333 475,-457.5 475,-457.5 475,-457.5 475,-105.5 475,-96.7318 475,-87.1843 475,-78.5196"/>
<polygon fill="#000000" stroke="#000000" points="478.5001,-78.5 475,-68.5 471.5001,-78.5 478.5001,-78.5"/>
</g>
<!-- data_activity_type -->
<g id="node4" class="node">
<title>data_activity_type</title>
<polygon fill="none" stroke="#000000" points="566.8837,-920.8 505.1163,-920.8 505.1163,-884.8 566.8837,-884.8 566.8837,-920.8"/>
<text text-anchor="middle" x="536" y="-898.6" font-family="Times,serif" font-size="14.00" fill="#000000">Activity</text>
</g>
<!-- data_activity_type&#45;&gt;data_nutrient_set -->
<g id="edge6" class="edge">
<title>data_activity_type&#45;&gt;data_nutrient_set</title>
<path fill="none" stroke="#000000" stroke-dasharray="5,2" d="M545,-884.7743C549.5,-874.1408 554,-860.2658 554,-847.3 554,-847.3 554,-847.3 554,-568.5 554,-551.4058 541.4624,-539.1234 526.3766,-530.5319"/>
<polygon fill="#000000" stroke="#000000" points="527.774,-527.3157 517.2753,-525.8914 524.5943,-533.5519 527.774,-527.3157"/>
<text text-anchor="middle" x="573.4355" y="-686.2" font-family="Times,serif" font-size="14.00" fill="#000000">Impact</text>
</g>
<!-- data_activity_type&#45;&gt;data_nutrient_set -->
<g id="edge7" class="edge">
<title>data_activity_type&#45;&gt;data_nutrient_set</title>
<path fill="none" stroke="#ff0000" stroke-dasharray="5,2" d="M505.0229,-890.1368C488.2815,-881.0307 471,-866.887 471,-847.3 471,-847.3 471,-847.3 471,-568.5 471,-559.709 471.5054,-550.155 472.157,-541.4912"/>
<polygon fill="#ff0000" stroke="#ff0000" points="475.6488,-541.7344 473,-531.476 468.6735,-541.1472 475.6488,-541.7344"/>
<text text-anchor="middle" x="494.7132" y="-686.2" font-family="Times,serif" font-size="14.00" fill="#000000">Expense</text>
</g>
<!-- data_img -->
<g id="node9" class="node">
<title>data_img</title>
<polygon fill="none" stroke="#000000" points="717,-255 663,-255 663,-219 717,-219 717,-255"/>
<text text-anchor="middle" x="690" y="-232.8" font-family="Times,serif" font-size="14.00" fill="#000000">Image</text>
</g>
<!-- data_activity_type&#45;&gt;data_img -->
<g id="edge8" class="edge">
<title>data_activity_type&#45;&gt;data_img</title>
<path fill="none" stroke="#000000" stroke-dasharray="5,2" d="M567.2017,-888.0322C570.1454,-886.8601 573.1093,-885.7604 576,-884.8 619.47,-870.3577 672,-893.1064 672,-847.3 672,-847.3 672,-847.3 672,-315.3 672,-298.1872 676.1342,-279.4931 680.44,-264.6638"/>
<polygon fill="#000000" stroke="#000000" points="683.7925,-265.6693 683.3997,-255.0818 677.1043,-263.6034 683.7925,-265.6693"/>
</g>
<!-- data_player -->
<g id="node5" class="node">
<title>data_player</title>
<polygon fill="none" stroke="#000000" points="639,-920.8 585,-920.8 585,-884.8 639,-884.8 639,-920.8"/>
<text text-anchor="middle" x="612" y="-898.6" font-family="Times,serif" font-size="14.00" fill="#000000">Player</text>
</g>
<!-- data_player&#45;&gt;data_nutrient_set -->
<g id="edge3" class="edge">
<title>data_player&#45;&gt;data_nutrient_set</title>
<path fill="none" stroke="#000000" stroke-dasharray="5,2" d="M612,-884.3C612,-873.5083 612,-859.6333 612,-847.3 612,-847.3 612,-847.3 612,-568.5 612,-549.4776 566.0547,-533.8744 527.3787,-524.1097"/>
<polygon fill="#000000" stroke="#000000" points="527.7669,-520.6019 517.2224,-521.6335 526.1088,-527.4027 527.7669,-520.6019"/>
</g>
<!-- data_avatar -->
<g id="node8" class="node">
<title>data_avatar</title>
<polygon fill="none" stroke="#000000" points="625.0871,-531 570.9129,-531 570.9129,-495 625.0871,-495 625.0871,-531"/>
<text text-anchor="middle" x="598" y="-508.8" font-family="Times,serif" font-size="14.00" fill="#000000">Avatar</text>
</g>
<!-- data_player&#45;&gt;data_avatar -->
<g id="edge2" class="edge">
<title>data_player&#45;&gt;data_avatar</title>
<path fill="none" stroke="#000000" stroke-dasharray="5,2" d="M622.1172,-884.6333C627.0778,-874.0679 632,-860.3073 632,-847.3 632,-847.3 632,-847.3 632,-568.5 632,-558.1607 627.6565,-548.1223 622.0744,-539.4905"/>
<polygon fill="#000000" stroke="#000000" points="624.8937,-537.4162 616.1944,-531.3685 619.2235,-541.5211 624.8937,-537.4162"/>
</g>
<!-- data_gamestate&#45;&gt;data_player -->
<g id="edge1" class="edge">
<title>data_gamestate&#45;&gt;data_player</title>
<path fill="none" stroke="#000000" stroke-dasharray="5,2" d="M602.5,-1351.1733C604.25,-1340.406 606,-1326.531 606,-1314.1 606,-1314.1 606,-1314.1 606,-958.3 606,-949.4807 606.7581,-939.9185 607.7354,-931.2559"/>
<polygon fill="#000000" stroke="#000000" points="611.219,-931.606 609,-921.2461 604.2742,-930.7285 611.219,-931.606"/>
</g>
<!-- data_gamefile -->
<g id="node10" class="node">
<title>data_gamefile</title>
<polygon fill="none" stroke="#ff0000" points="806.7051,-255 735.2949,-255 735.2949,-219 806.7051,-219 806.7051,-255"/>
<text text-anchor="middle" x="771" y="-232.8" font-family="Times,serif" font-size="14.00" fill="#000000">GameFile</text>
</g>
<!-- data_gamestate&#45;&gt;data_gamefile -->
<g id="edge10" class="edge">
<title>data_gamestate&#45;&gt;data_gamefile</title>
<path fill="none" stroke="#ff0000" stroke-dasharray="5,2" d="M639.5206,-1361.7956C664.5822,-1354.3515 692,-1340.2353 692,-1314.1 692,-1314.1 692,-1314.1 692,-315.3 692,-295.8648 711.9526,-301.2313 726,-287.8 734.1313,-280.0253 742.4572,-270.9831 749.7013,-262.7005"/>
<polygon fill="#ff0000" stroke="#ff0000" points="752.4068,-264.9224 756.2736,-255.0584 747.0995,-260.3581 752.4068,-264.9224"/>
</g>
<!-- data_food -->
<g id="node7" class="node">
<title>data_food</title>
<polygon fill="none" stroke="#000000" points="487,-920.8 433,-920.8 433,-884.8 487,-884.8 487,-920.8"/>
<text text-anchor="middle" x="460" y="-898.6" font-family="Times,serif" font-size="14.00" fill="#000000">Food</text>
</g>
<!-- data_food&#45;&gt;data_nutrient_set -->
<g id="edge4" class="edge">
<title>data_food&#45;&gt;data_nutrient_set</title>
<path fill="none" stroke="#000000" stroke-dasharray="5,2" d="M446.6953,-884.7714C440.2985,-874.3611 434,-860.7068 434,-847.3 434,-847.3 434,-847.3 434,-568.5 434,-557.6062 439.1736,-547.4486 445.8451,-538.8789"/>
<polygon fill="#000000" stroke="#000000" points="448.6323,-541.0085 452.5806,-531.1768 443.363,-536.4004 448.6323,-541.0085"/>
</g>
<!-- data_food&#45;&gt;data_img -->
<g id="edge5" class="edge">
<title>data_food&#45;&gt;data_img</title>
<path fill="none" stroke="#000000" stroke-dasharray="5,2" d="M487.2326,-888.3801C490.1526,-887.0768 493.1116,-885.8536 496,-884.8 562.9906,-860.3634 652,-918.6084 652,-847.3 652,-847.3 652,-847.3 652,-315.3 652,-296.7808 660.71,-278.0468 669.79,-263.5486"/>
<polygon fill="#000000" stroke="#000000" points="672.7819,-265.3705 675.4169,-255.1086 666.9576,-261.4875 672.7819,-265.3705"/>
</g>
<!-- data_avatar&#45;&gt;data_img -->
<g id="edge11" class="edge">
<title>data_avatar&#45;&gt;data_img</title>
<path fill="none" stroke="#000000" stroke-dasharray="5,2" d="M594,-494.5956C592,-483.8358 590,-469.9608 590,-457.5 590,-457.5 590,-457.5 590,-315.3 590,-285.5612 627.6863,-306.2626 651,-287.8 659.4986,-281.0698 667.1808,-272.0973 673.4357,-263.5669"/>
<polygon fill="#000000" stroke="#000000" points="676.3597,-265.4924 679.1921,-255.2832 670.6114,-261.4978 676.3597,-265.4924"/>
<text text-anchor="middle" x="611.3885" y="-407.4" font-family="Times,serif" font-size="14.00" fill="#000000">Hair</text>
<text text-anchor="middle" x="611.3885" y="-390.6" font-family="Times,serif" font-size="14.00" fill="#000000">Clothes</text>
<text text-anchor="middle" x="611.3885" y="-373.8" font-family="Times,serif" font-size="14.00" fill="#000000">Skin</text>
<text text-anchor="middle" x="611.3885" y="-357" font-family="Times,serif" font-size="14.00" fill="#000000">...</text>
</g>
<!-- asset_food_loader -->
<g id="node12" class="node">
<title>asset_food_loader</title>
<polygon fill="none" stroke="#000000" points="149.8269,-1031.8 44.1731,-1031.8 44.1731,-995.8 149.8269,-995.8 149.8269,-1031.8"/>
<text text-anchor="middle" x="97" y="-1009.6" font-family="Times,serif" font-size="14.00" fill="#000000">Food Controller</text>
</g>
<!-- asset_manager&#45;&gt;asset_food_loader -->
<g id="edge12" class="edge">
<title>asset_manager&#45;&gt;asset_food_loader</title>
<path fill="none" stroke="#000000" stroke-dasharray="1,5" d="M170.8126,-1211.8512C160.512,-1203.8168 153,-1193.4496 153,-1180.3 153,-1180.3 153,-1180.3 153,-1069.3 153,-1057.216 146.3404,-1046.8662 137.6144,-1038.4916"/>
<polygon fill="#000000" stroke="#000000" points="168.9229,-1214.7989 179.1549,-1217.5479 172.8705,-1209.0182 168.9229,-1214.7989"/>
<polygon fill="#000000" stroke="#000000" points="139.7835,-1035.7417 129.8993,-1031.9268 135.2471,-1041.0729 139.7835,-1035.7417"/>
</g>
<!-- asset_image_loader -->
<g id="node13" class="node">
<title>asset_image_loader</title>
<polygon fill="none" stroke="#000000" points="195.0246,-809.8 82.9754,-809.8 82.9754,-773.8 195.0246,-773.8 195.0246,-809.8"/>
<text text-anchor="middle" x="139" y="-787.6" font-family="Times,serif" font-size="14.00" fill="#000000">Image Controller</text>
</g>
<!-- asset_manager&#45;&gt;asset_image_loader -->
<g id="edge13" class="edge">
<title>asset_manager&#45;&gt;asset_image_loader</title>
<path fill="none" stroke="#000000" stroke-dasharray="1,5" d="M165.7674,-1230.7719C105.863,-1224.212 25,-1209.879 25,-1180.3 25,-1180.3 25,-1180.3 25,-847.3 25,-834.6548 47.9612,-822.1813 73.274,-812.2722"/>
<polygon fill="#000000" stroke="#000000" points="165.6244,-1234.2759 175.9339,-1231.8337 166.3517,-1227.3137 165.6244,-1234.2759"/>
<polygon fill="#000000" stroke="#000000" points="74.5384,-815.5361 82.668,-808.742 72.0759,-808.9835 74.5384,-815.5361"/>
</g>
<!-- asset_activity_loader -->
<g id="node14" class="node">
<title>asset_activity_loader</title>
<polygon fill="none" stroke="#000000" points="290.4278,-1031.8 167.5722,-1031.8 167.5722,-995.8 290.4278,-995.8 290.4278,-1031.8"/>
<text text-anchor="middle" x="229" y="-1009.6" font-family="Times,serif" font-size="14.00" fill="#000000">Activity Controller</text>
</g>
<!-- asset_manager&#45;&gt;asset_activity_loader -->
<g id="edge14" class="edge">
<title>asset_manager&#45;&gt;asset_activity_loader</title>
<path fill="none" stroke="#000000" stroke-dasharray="1,5" d="M229,-1207.2804C229,-1198.6157 229,-1189.0682 229,-1180.3 229,-1180.3 229,-1180.3 229,-1069.3 229,-1060.5318 229,-1050.9843 229,-1042.3196"/>
<polygon fill="#000000" stroke="#000000" points="225.5001,-1207.3 229,-1217.3 232.5001,-1207.3 225.5001,-1207.3"/>
<polygon fill="#000000" stroke="#000000" points="232.5001,-1042.3 229,-1032.3 225.5001,-1042.3 232.5001,-1042.3"/>
</g>
<!-- asset_game_loader -->
<g id="node15" class="node">
<title>asset_game_loader</title>
<polygon fill="none" stroke="#ff0000" points="401.0698,-1031.8 308.9302,-1031.8 308.9302,-995.8 401.0698,-995.8 401.0698,-1031.8"/>
<text text-anchor="middle" x="355" y="-1009.6" font-family="Times,serif" font-size="14.00" fill="#000000">Game Loader</text>
</g>
<!-- asset_manager&#45;&gt;asset_game_loader -->
<g id="edge15" class="edge">
<title>asset_manager&#45;&gt;asset_game_loader</title>
<path fill="none" stroke="#ff0000" stroke-dasharray="1,5" d="M284.2996,-1211.8511C294.4959,-1203.7605 302,-1193.3672 302,-1180.3 302,-1180.3 302,-1180.3 302,-1069.3 302,-1057.33 308.5279,-1046.926 317.0017,-1038.4631"/>
<polygon fill="#ff0000" stroke="#ff0000" points="282.2603,-1209.0061 276.0574,-1217.5953 286.2628,-1214.749 282.2603,-1209.0061"/>
<polygon fill="#ff0000" stroke="#ff0000" points="319.3276,-1041.0785 324.4768,-1031.8191 314.6772,-1035.8464 319.3276,-1041.0785"/>
</g>
<!-- asset_food_loader&#45;&gt;data_food -->
<g id="edge31" class="edge">
<title>asset_food_loader&#45;&gt;data_food</title>
<path fill="none" stroke="#000000" stroke-dasharray="1,5" d="M150.0397,-998.3095C236.6893,-972.9861 400.3025,-925.0923 413,-920.8 416.3291,-919.6746 419.7722,-918.4586 423.2114,-917.2081"/>
<polygon fill="#000000" stroke="#000000" points="424.645,-920.4091 432.7951,-913.6397 422.2023,-913.8491 424.645,-920.4091"/>
</g>
<!-- asset_food_loader&#45;&gt;asset_image_loader -->
<g id="edge17" class="edge">
<title>asset_food_loader&#45;&gt;asset_image_loader</title>
<path fill="none" stroke="#000000" stroke-dasharray="1,5" d="M110.3047,-995.7714C116.7015,-985.3611 123,-971.7068 123,-958.3 123,-958.3 123,-958.3 123,-847.3 123,-838.0744 125.0664,-828.3119 127.714,-819.5898"/>
<polygon fill="#000000" stroke="#000000" points="131.0952,-820.5177 131,-809.9233 124.4677,-818.2647 131.0952,-820.5177"/>
</g>
<!-- asset_nutrient_loader -->
<g id="node16" class="node">
<title>asset_nutrient_loader</title>
<polygon fill="none" stroke="#000000" points="365.6313,-809.8 264.3687,-809.8 264.3687,-773.8 365.6313,-773.8 365.6313,-809.8"/>
<text text-anchor="middle" x="315" y="-787.6" font-family="Times,serif" font-size="14.00" fill="#000000">Nutrient Parser</text>
</g>
<!-- asset_food_loader&#45;&gt;asset_nutrient_loader -->
<g id="edge16" class="edge">
<title>asset_food_loader&#45;&gt;asset_nutrient_loader</title>
<path fill="none" stroke="#000000" stroke-dasharray="1,5" d="M126.9473,-995.6561C138.5065,-986.2264 149,-973.4844 149,-958.3 149,-958.3 149,-958.3 149,-866.3 149,-842.3623 207.1821,-820.6562 254.6557,-806.9294"/>
<polygon fill="#000000" stroke="#000000" points="255.6202,-810.294 264.2925,-804.2079 253.7177,-803.5575 255.6202,-810.294"/>
</g>
<!-- asset_image_loader&#45;&gt;data_img -->
<g id="edge29" class="edge">
<title>asset_image_loader&#45;&gt;data_img</title>
<path fill="none" stroke="#000000" stroke-dasharray="1,5" d="M195.31,-777.8099C241.7377,-765.4548 300,-747.6827 300,-736.3 300,-736.3 300,-736.3 300,-315.3 300,-279.5272 555.4848,-250.3682 652.8879,-240.5513"/>
<polygon fill="#000000" stroke="#000000" points="653.2816,-244.0295 662.8856,-239.5558 652.588,-237.0639 653.2816,-244.0295"/>
</g>
<!-- asset_activity_loader&#45;&gt;data_activity_type -->
<g id="edge30" class="edge">
<title>asset_activity_loader&#45;&gt;data_activity_type</title>
<path fill="none" stroke="#000000" stroke-dasharray="1,5" d="M266.952,-995.7754C303.2615,-979.1069 359.9016,-954.5944 411,-938.8 445.1551,-928.2427 457.461,-932.0836 495.2137,-920.6566"/>
<polygon fill="#000000" stroke="#000000" points="496.3435,-923.9701 504.8085,-917.5987 494.2178,-917.3006 496.3435,-923.9701"/>
</g>
<!-- asset_activity_loader&#45;&gt;asset_image_loader -->
<g id="edge18" class="edge">
<title>asset_activity_loader&#45;&gt;asset_image_loader</title>
<path fill="none" stroke="#000000" stroke-dasharray="1,5" d="M193.0586,-995.7133C180.2802,-986.5767 169,-974.0506 169,-958.3 169,-958.3 169,-958.3 169,-866.3 169,-849.7598 162.5584,-832.5517 155.645,-818.8462"/>
<polygon fill="#000000" stroke="#000000" points="158.6845,-817.1085 150.8568,-809.9686 152.5235,-820.4316 158.6845,-817.1085"/>
</g>
<!-- asset_game_loader&#45;&gt;data_gamefile -->
<g id="edge28" class="edge">
<title>asset_game_loader&#45;&gt;data_gamefile</title>
<path fill="none" stroke="#ff0000" stroke-dasharray="1,5" d="M383.4024,-995.6388C394.7557,-988.9825 408.1651,-981.8505 421,-976.8 549.7355,-926.1426 712,-1004.6438 712,-866.3 712,-866.3 712,-866.3 712,-315.3 712,-308.9138 732.2771,-283.1052 749.0568,-262.8414"/>
<polygon fill="#ff0000" stroke="#ff0000" points="751.7779,-265.0434 755.4984,-255.1233 746.4037,-260.558 751.7779,-265.0434"/>
</g>
<!-- asset_nutrient_loader&#45;&gt;data_nutrient_set -->
<g id="edge32" class="edge">
<title>asset_nutrient_loader&#45;&gt;data_nutrient_set</title>
<path fill="none" stroke="#000000" stroke-dasharray="1,5" d="M348.8159,-773.5578C361.0898,-764.326 372,-751.7693 372,-736.3 372,-736.3 372,-736.3 372,-568.5 372,-542.6533 397.4468,-528.7891 423.0438,-521.3812"/>
<polygon fill="#000000" stroke="#000000" points="424.0088,-524.7467 432.8088,-518.8466 422.2502,-517.9712 424.0088,-524.7467"/>
</g>
<!-- ifc_page&#45;&gt;process_controller -->
<g id="edge27" class="edge">
<title>ifc_page&#45;&gt;process_controller</title>
<path fill="none" stroke="#000000" stroke-dasharray="1,5" d="M1007.0456,-1387.9526C989.5696,-1418.4858 950.4818,-1479.72 901,-1513.8 869.8605,-1535.247 829.8344,-1548.7394 796.4437,-1556.99"/>
<polygon fill="#000000" stroke="#000000" points="795.2378,-1553.6785 786.3112,-1559.3853 796.8482,-1560.4908 795.2378,-1553.6785"/>
<text text-anchor="middle" x="954.1599" y="-1501.2" font-family="Times,serif" font-size="14.00" fill="#000000">init</text>
<text text-anchor="middle" x="954.1599" y="-1484.4" font-family="Times,serif" font-size="14.00" fill="#000000">event</text>
</g>
<!-- ifc_meal_page -->
<g id="node18" class="node">
<title>ifc_meal_page</title>
<polygon fill="none" stroke="#000000" points="1396.9777,-1142.8 1321.0223,-1142.8 1321.0223,-1106.8 1396.9777,-1106.8 1396.9777,-1142.8"/>
<text text-anchor="middle" x="1359" y="-1120.6" font-family="Times,serif" font-size="14.00" fill="#000000">Meal Page</text>
</g>
<!-- ifc_page&#45;&gt;ifc_meal_page -->
<g id="edge19" class="edge">
<title>ifc_page&#45;&gt;ifc_meal_page</title>
<path fill="none" stroke="#000000" d="M1054.4601,-1366.1929C1132.017,-1358.6333 1303,-1339.129 1303,-1314.1 1303,-1314.1 1303,-1314.1 1303,-1180.3 1303,-1164.8325 1313.911,-1152.2063 1326.1007,-1142.9268"/>
<polygon fill="#000000" stroke="#000000" points="1053.7845,-1362.7415 1044.164,-1367.1796 1054.4524,-1369.7096 1053.7845,-1362.7415"/>
</g>
<!-- ifc_activity_page -->
<g id="node19" class="node">
<title>ifc_activity_page</title>
<polygon fill="none" stroke="#000000" points="931.0963,-1142.8 838.9037,-1142.8 838.9037,-1106.8 931.0963,-1106.8 931.0963,-1142.8"/>
<text text-anchor="middle" x="885" y="-1120.6" font-family="Times,serif" font-size="14.00" fill="#000000">Activity Page</text>
</g>
<!-- ifc_page&#45;&gt;ifc_activity_page -->
<g id="edge20" class="edge">
<title>ifc_page&#45;&gt;ifc_activity_page</title>
<path fill="none" stroke="#000000" d="M980.5513,-1358.2292C961.0485,-1349.638 941,-1335.5821 941,-1314.1 941,-1314.1 941,-1314.1 941,-1180.3 941,-1164.8325 930.089,-1152.2063 917.8993,-1142.9268"/>
<polygon fill="#000000" stroke="#000000" points="979.4071,-1361.5412 989.9913,-1362.0163 982.0134,-1355.0445 979.4071,-1361.5412"/>
</g>
<!-- ifc_daily_summary -->
<g id="node20" class="node">
<title>ifc_daily_summary</title>
<polygon fill="none" stroke="#000000" points="1084.7534,-1142.8 949.2466,-1142.8 949.2466,-1106.8 1084.7534,-1106.8 1084.7534,-1142.8"/>
<text text-anchor="middle" x="1017" y="-1120.6" font-family="Times,serif" font-size="14.00" fill="#000000">Daily Summary Page</text>
</g>
<!-- ifc_page&#45;&gt;ifc_daily_summary -->
<g id="edge21" class="edge">
<title>ifc_page&#45;&gt;ifc_daily_summary</title>
<path fill="none" stroke="#000000" d="M1017,-1341.0804C1017,-1332.4157 1017,-1322.8682 1017,-1314.1 1017,-1314.1 1017,-1314.1 1017,-1180.3 1017,-1167.9667 1017,-1154.0917 1017,-1143.3"/>
<polygon fill="#000000" stroke="#000000" points="1013.5001,-1341.1 1017,-1351.1 1020.5001,-1341.1 1013.5001,-1341.1"/>
</g>
<!-- ifc_char_creation_page -->
<g id="node21" class="node">
<title>ifc_char_creation_page</title>
<polygon fill="none" stroke="#000000" points="1212.6857,-1142.8 1103.3143,-1142.8 1103.3143,-1106.8 1212.6857,-1106.8 1212.6857,-1142.8"/>
<text text-anchor="middle" x="1158" y="-1120.6" font-family="Times,serif" font-size="14.00" fill="#000000">Avatar Selection</text>
</g>
<!-- ifc_page&#45;&gt;ifc_char_creation_page -->
<g id="edge22" class="edge">
<title>ifc_page&#45;&gt;ifc_char_creation_page</title>
<path fill="none" stroke="#000000" d="M1053.5906,-1359.4704C1074.6599,-1351.1655 1097,-1336.9678 1097,-1314.1 1097,-1314.1 1097,-1314.1 1097,-1180.3 1097,-1164.5506 1108.2625,-1152.0888 1121.1088,-1142.9971"/>
<polygon fill="#000000" stroke="#000000" points="1052.3146,-1356.2097 1044.0844,-1362.8815 1054.6789,-1362.7984 1052.3146,-1356.2097"/>
</g>
<!-- ifc_start_page -->
<g id="node22" class="node">
<title>ifc_start_page</title>
<polygon fill="none" stroke="#ff0000" points="1303.651,-1142.8 1230.349,-1142.8 1230.349,-1106.8 1303.651,-1106.8 1303.651,-1142.8"/>
<text text-anchor="middle" x="1267" y="-1120.6" font-family="Times,serif" font-size="14.00" fill="#000000">Start Page</text>
</g>
<!-- ifc_page&#45;&gt;ifc_start_page -->
<g id="edge23" class="edge">
<title>ifc_page&#45;&gt;ifc_start_page</title>
<path fill="none" stroke="#ff0000" d="M1054.2712,-1363.8634C1100.1332,-1355.7308 1172,-1339.0122 1172,-1314.1 1172,-1314.1 1172,-1314.1 1172,-1180.3 1172,-1173.2564 1203.5375,-1155.9049 1230.2705,-1142.462"/>
<polygon fill="#ff0000" stroke="#ff0000" points="1053.6201,-1360.4239 1044.3541,-1365.5612 1054.8013,-1367.3235 1053.6201,-1360.4239"/>
</g>
</g>
<!-- Raw Code:

digraph H {
 
  subgraph cluster_codestruct {
      node [ shape="box" ];
      label = "Basic Code Structure";
      subgraph cluster_process {
          label = "Process";
          process_controller [label="Game Controller"];
      };
      
      subgraph cluster_data {
          label = "Data";
          edge [style="dashed"];
          subgraph cluster_coredata {
             label="Core Data";
             data_nutrient [label="Nutrient"];
             data_nutrient_set [label= "Nutrient Set"];
             data_activity_type [label = "Activity"];
             data_player [label = "Player"]
             data_gamestate [label="Game State"]
             data_food [label="Food"];
             data_avatar [label="Avatar"];
          };
          subgraph cluster_platformdata {
              label ="Platform Data";
              data_img [label="Image"];
              data_gamefile [label="GameFile", color=red];
          };
          
          data_gamestate -> data_player;
          data_player -> data_avatar;
          data_player -> data_nutrient_set;
          data_food -> data_nutrient_set;
          data_food -> data_img;
          data_activity_type -> data_nutrient_set[label="Impact"];
          data_activity_type -> data_nutrient_set[label="Expense", color=red];
          data_activity_type -> data_img;
          data_nutrient_set -> data_nutrient;
          
          data_gamestate -> data_gamefile [color=red];
          data_avatar->data_img [label="Hair\nClothes\nSkin\n..."]
          
          
      }

      subgraph cluster_assets {
          label = "Assets";
          edge [style="dotted"];
          asset_manager [label = "Asset Manager?"];
          asset_food_loader [label = "Food Controller"];
          asset_image_loader [label = "Image Controller"];
          asset_activity_loader [label = "Activity Controller"];
          asset_game_loader [label="Game Loader", color=red];
          asset_nutrient_loader [label="Nutrient Parser"];
          asset_manager -> asset_food_loader [dir="both", style="dotted"];
          asset_manager -> asset_image_loader [dir="both", style="dotted"];
          asset_manager -> asset_activity_loader [dir="both", style="dotted"];
          asset_manager -> asset_game_loader [dir="both", style="dotted", color="red"];
          asset_food_loader -> asset_nutrient_loader;
          asset_food_loader -> asset_image_loader;
          asset_activity_loader -> asset_image_loader;
      };
        
      subgraph cluster_interface {
          label = "Interface";

          ifc_page [label = "Page"];
          subgraph sub_interfaces {
              {
              rank = same;
              ifc_meal_page [label = "Meal Page"];
              ifc_activity_page [label = "Activity Page"];
              ifc_daily_summary [label = "Daily Summary Page"];
              ifc_char_creation_page [label = "Avatar Selection"];
              ifc_start_page [label = "Start Page", color=red];
              }
          }

          
          ifc_page -> ifc_meal_page [dir="back"];
          ifc_page -> ifc_activity_page [dir="back"];
          ifc_page -> ifc_daily_summary [dir="back"];
          ifc_page -> ifc_char_creation_page [dir="back"];
          ifc_page -> ifc_start_page [dir="back", color="red"];
      };
      
      process_controller -> data_gamestate [style=dashed]
      process_controller -> ifc_page [style=dotted, label="control"];
      process_controller -> asset_manager [style=dotted, label="load"];
      ifc_page -> process_controller [style=dotted, label="init\nevent"];
      asset_game_loader -> data_gamefile [style=dotted, color=red];
      asset_image_loader -> data_img [style=dotted];
      asset_activity_loader -> data_activity_type [style=dotted];
      asset_food_loader -> data_food [style=dotted];
      asset_nutrient_loader -> data_nutrient_set [style=dotted];
      
  }
  
  #start [shape=Mdiamond];
  #end [shape=Msquare];
}

-->
</svg>
