<?xml version="1.0" encoding="UTF-8" standalone="no"?>
<!DOCTYPE svg PUBLIC "-//W3C//DTD SVG 1.1//EN"
 "http://www.w3.org/Graphics/SVG/1.1/DTD/svg11.dtd">
<!-- Generated by graphviz version 2.40.1 (20161225.0304)
 -->
<!-- Title: GameFlow Pages: 1 -->
<svg width="449pt" height="570pt"
 viewBox="0.00 0.00 449.37 570.00" xmlns="http://www.w3.org/2000/svg" xmlns:xlink="http://www.w3.org/1999/xlink">
<g id="graph0" class="graph" transform="scale(1 1) rotate(0) translate(4 566)">
<title>GameFlow</title>
<polygon fill="#ffffff" stroke="transparent" points="-4,4 -4,-566 445.3692,-566 445.3692,4 -4,4"/>
<text text-anchor="middle" x="220.6846" y="-8.2" font-family="Times,serif" font-size="14.00" fill="#000000">Game Flow</text>
<!-- flow_start -->
<g id="node1" class="node">
<title>flow_start</title>
<ellipse fill="none" stroke="#ff0000" cx="79.8523" cy="-544" rx="29.049" ry="18"/>
<text text-anchor="middle" x="79.8523" y="-539.8" font-family="Times,serif" font-size="14.00" fill="#000000">Start</text>
</g>
<!-- flow_char_create -->
<g id="node2" class="node">
<title>flow_char_create</title>
<ellipse fill="none" stroke="#000000" cx="212.8523" cy="-455.2" rx="65.4474" ry="18"/>
<text text-anchor="middle" x="212.8523" y="-451" font-family="Times,serif" font-size="14.00" fill="#000000">Char Creation</text>
</g>
<!-- flow_start&#45;&gt;flow_char_create -->
<g id="edge1" class="edge">
<title>flow_start&#45;&gt;flow_char_create</title>
<path fill="none" stroke="#ff0000" d="M99.7637,-530.7057C120.7664,-516.6829 154.2287,-494.3412 179.3146,-477.5921"/>
<polygon fill="#ff0000" stroke="#ff0000" points="181.4311,-480.3874 187.8043,-471.9238 177.5441,-474.5658 181.4311,-480.3874"/>
<text text-anchor="middle" x="189.535" y="-495.4" font-family="Times,serif" font-size="14.00" fill="#000000">Start Game</text>
</g>
<!-- flow_state_reader -->
<g id="node3" class="node">
<title>flow_state_reader</title>
<ellipse fill="none" stroke="#ff0000" cx="63.8523" cy="-382.2" rx="63.7049" ry="18"/>
<text text-anchor="middle" x="63.8523" y="-378" font-family="Times,serif" font-size="14.00" fill="#000000">Game Loader</text>
</g>
<!-- flow_start&#45;&gt;flow_state_reader -->
<g id="edge2" class="edge">
<title>flow_start&#45;&gt;flow_state_reader</title>
<path fill="none" stroke="#ff0000" d="M78.048,-525.754C75.2751,-497.7137 69.9436,-443.7988 66.6621,-410.6143"/>
<polygon fill="#ff0000" stroke="#ff0000" points="70.1417,-410.2346 65.6745,-400.6276 63.1757,-410.9235 70.1417,-410.2346"/>
<text text-anchor="middle" x="105.6991" y="-451" font-family="Times,serif" font-size="14.00" fill="#000000">Load Game</text>
</g>
<!-- flow_day_intro -->
<g id="node4" class="node">
<title>flow_day_intro</title>
<ellipse fill="none" stroke="#ff0000" cx="212.8523" cy="-382.2" rx="48.1157" ry="18"/>
<text text-anchor="middle" x="212.8523" y="-378" font-family="Times,serif" font-size="14.00" fill="#000000">Day Intro</text>
</g>
<!-- flow_char_create&#45;&gt;flow_day_intro -->
<g id="edge5" class="edge">
<title>flow_char_create&#45;&gt;flow_day_intro</title>
<path fill="none" stroke="#000000" d="M212.8523,-437.1551C212.8523,-429.0828 212.8523,-419.3764 212.8523,-410.3817"/>
<polygon fill="#000000" stroke="#000000" points="216.3524,-410.2903 212.8523,-400.2904 209.3524,-410.2904 216.3524,-410.2903"/>
</g>
<!-- flow_meal_select -->
<g id="node5" class="node">
<title>flow_meal_select</title>
<ellipse fill="none" stroke="#000000" cx="152.8523" cy="-293.4" rx="56.7756" ry="18"/>
<text text-anchor="middle" x="152.8523" y="-289.2" font-family="Times,serif" font-size="14.00" fill="#000000">Select Meal</text>
</g>
<!-- flow_state_reader&#45;&gt;flow_meal_select -->
<g id="edge3" class="edge">
<title>flow_state_reader&#45;&gt;flow_meal_select</title>
<path fill="none" stroke="#ff0000" d="M81.4358,-364.656C94.8089,-351.3129 113.377,-332.7865 128.228,-317.9689"/>
<polygon fill="#ff0000" stroke="#ff0000" points="131.0012,-320.1462 135.6081,-310.6054 126.057,-315.1909 131.0012,-320.1462"/>
</g>
<!-- flow_activity_select -->
<g id="node7" class="node">
<title>flow_activity_select</title>
<ellipse fill="none" stroke="#000000" cx="152.8523" cy="-115.8" rx="68.8929" ry="18"/>
<text text-anchor="middle" x="152.8523" y="-111.6" font-family="Times,serif" font-size="14.00" fill="#000000">Select Activity</text>
</g>
<!-- flow_state_reader&#45;&gt;flow_activity_select -->
<g id="edge4" class="edge">
<title>flow_state_reader&#45;&gt;flow_activity_select</title>
<path fill="none" stroke="#ff0000" d="M52.4745,-364.1058C36.903,-336.9744 12.4389,-284.2728 26.8523,-240.6 41.7142,-195.568 84.3012,-159.5483 115.8728,-137.9967"/>
<polygon fill="#ff0000" stroke="#ff0000" points="118.0538,-140.7501 124.4533,-132.3063 114.185,-134.9163 118.0538,-140.7501"/>
</g>
<!-- flow_day_intro&#45;&gt;flow_meal_select -->
<g id="edge15" class="edge">
<title>flow_day_intro&#45;&gt;flow_meal_select</title>
<path fill="none" stroke="#000000" d="M200.9982,-364.656C192.3439,-351.8476 180.4624,-334.2629 170.6681,-319.7675"/>
<polygon fill="#000000" stroke="#000000" points="173.3858,-317.5379 164.8871,-311.2115 167.5856,-321.4569 173.3858,-317.5379"/>
<text text-anchor="middle" x="214.6707" y="-333.6" font-family="Times,serif" font-size="14.00" fill="#000000">Breakfast</text>
</g>
<!-- flow_meal_summary -->
<g id="node6" class="node">
<title>flow_meal_summary</title>
<ellipse fill="none" stroke="#000000" cx="152.8523" cy="-204.6" rx="77.0438" ry="18"/>
<text text-anchor="middle" x="152.8523" y="-200.4" font-family="Times,serif" font-size="14.00" fill="#000000">Summarize Meal</text>
</g>
<!-- flow_meal_select&#45;&gt;flow_meal_summary -->
<g id="edge6" class="edge">
<title>flow_meal_select&#45;&gt;flow_meal_summary</title>
<path fill="none" stroke="#000000" d="M108.2958,-281.9343C96.1375,-276.5435 84.3596,-268.7124 77.2155,-257.4 68.2689,-243.2335 79.2686,-231.8273 95.4051,-223.2915"/>
<polygon fill="#000000" stroke="#000000" points="97.2613,-226.2853 104.8044,-218.8453 94.2681,-219.9575 97.2613,-226.2853"/>
<text text-anchor="middle" x="104.6707" y="-244.8" font-family="Times,serif" font-size="14.00" fill="#000000">Breakfast</text>
</g>
<!-- flow_meal_select&#45;&gt;flow_meal_summary -->
<g id="edge8" class="edge">
<title>flow_meal_select&#45;&gt;flow_meal_summary</title>
<path fill="none" stroke="#000000" d="M152.8523,-275.0006C152.8523,-262.8949 152.8523,-246.8076 152.8523,-233.0674"/>
<polygon fill="#000000" stroke="#000000" points="156.3524,-232.672 152.8523,-222.672 149.3524,-232.6721 156.3524,-232.672"/>
<text text-anchor="middle" x="170.7359" y="-244.8" font-family="Times,serif" font-size="14.00" fill="#000000">Lunch</text>
</g>
<!-- flow_meal_select&#45;&gt;flow_meal_summary -->
<g id="edge9" class="edge">
<title>flow_meal_select&#45;&gt;flow_meal_summary</title>
<path fill="none" stroke="#000000" d="M176.0302,-276.4328C186.4611,-266.5865 195.3386,-253.5927 189.8523,-240.6 188.2049,-236.6988 185.9053,-233.0113 183.2502,-229.5915"/>
<polygon fill="#000000" stroke="#000000" points="185.8329,-227.2292 176.5496,-222.1233 180.6227,-231.904 185.8329,-227.2292"/>
<text text-anchor="middle" x="210.2885" y="-244.8" font-family="Times,serif" font-size="14.00" fill="#000000">Dinner</text>
</g>
<!-- flow_meal_summary&#45;&gt;flow_meal_select -->
<g id="edge7" class="edge">
<title>flow_meal_summary&#45;&gt;flow_meal_select</title>
<path fill="none" stroke="#000000" d="M84.3447,-213.0286C49.3522,-220.33 17.4917,-233.6249 35.0851,-257.4 42.5511,-267.4893 67.9419,-275.8967 93.2446,-282.0425"/>
<polygon fill="#000000" stroke="#000000" points="92.7418,-285.5187 103.2741,-284.3691 94.3237,-278.6998 92.7418,-285.5187"/>
<text text-anchor="middle" x="53.7359" y="-244.8" font-family="Times,serif" font-size="14.00" fill="#000000">Lunch</text>
</g>
<!-- flow_meal_summary&#45;&gt;flow_activity_select -->
<g id="edge10" class="edge">
<title>flow_meal_summary&#45;&gt;flow_activity_select</title>
<path fill="none" stroke="#000000" d="M152.8523,-186.2006C152.8523,-174.0949 152.8523,-158.0076 152.8523,-144.2674"/>
<polygon fill="#000000" stroke="#000000" points="156.3524,-143.872 152.8523,-133.872 149.3524,-143.8721 156.3524,-143.872"/>
</g>
<!-- flow_day_summary -->
<g id="node9" class="node">
<title>flow_day_summary</title>
<ellipse fill="none" stroke="#000000" cx="367.8523" cy="-115.8" rx="73.5339" ry="18"/>
<text text-anchor="middle" x="367.8523" y="-111.6" font-family="Times,serif" font-size="14.00" fill="#000000">Summarize Day</text>
</g>
<!-- flow_meal_summary&#45;&gt;flow_day_summary -->
<g id="edge13" class="edge">
<title>flow_meal_summary&#45;&gt;flow_day_summary</title>
<path fill="none" stroke="#000000" d="M178.6469,-187.3586C196.4007,-176.0699 220.8447,-161.6402 243.8523,-151.8 263.071,-143.5803 284.7405,-136.5723 304.5257,-130.9838"/>
<polygon fill="#000000" stroke="#000000" points="305.6589,-134.3021 314.3716,-128.2739 303.8013,-127.5531 305.6589,-134.3021"/>
</g>
<!-- flow_activity_summary -->
<g id="node8" class="node">
<title>flow_activity_summary</title>
<ellipse fill="none" stroke="#000000" cx="208.8523" cy="-42.8" rx="89.1602" ry="18"/>
<text text-anchor="middle" x="208.8523" y="-38.6" font-family="Times,serif" font-size="14.00" fill="#000000">Summarize Activity</text>
</g>
<!-- flow_activity_select&#45;&gt;flow_activity_summary -->
<g id="edge11" class="edge">
<title>flow_activity_select&#45;&gt;flow_activity_summary</title>
<path fill="none" stroke="#000000" d="M166.4083,-98.1287C173.118,-89.3822 181.3515,-78.6493 188.7752,-68.9719"/>
<polygon fill="#000000" stroke="#000000" points="191.7224,-70.8803 195.032,-60.8157 186.1684,-66.6197 191.7224,-70.8803"/>
</g>
<!-- flow_activity_summary&#45;&gt;flow_meal_select -->
<g id="edge12" class="edge">
<title>flow_activity_summary&#45;&gt;flow_meal_select</title>
<path fill="none" stroke="#000000" d="M218.5651,-60.8246C238.5971,-100.7304 278.9976,-197.722 233.8523,-257.4 227.0995,-266.3265 217.6453,-273.0867 207.5699,-278.191"/>
<polygon fill="#000000" stroke="#000000" points="205.8712,-275.1179 198.2019,-282.4277 208.7557,-281.4959 205.8712,-275.1179"/>
<text text-anchor="middle" x="272.2885" y="-156" font-family="Times,serif" font-size="14.00" fill="#000000">Dinner</text>
</g>
<!-- flow_day_summary&#45;&gt;flow_day_intro -->
<g id="edge14" class="edge">
<title>flow_day_summary&#45;&gt;flow_day_intro</title>
<path fill="none" stroke="#000000" d="M360.2548,-133.733C342.922,-173.7102 297.9103,-272.4199 245.8523,-346.2 243.1959,-349.9648 240.1803,-353.7534 237.0776,-357.3862"/>
<polygon fill="#000000" stroke="#000000" points="234.3082,-355.2324 230.2519,-365.02 239.5265,-359.8983 234.3082,-355.2324"/>
</g>
</g>
<!-- 
digraph GameFlow {
    compound=true;
    label = "Game Flow";
      flow_start [label="Start", color=red];
      flow_char_create [label="Char Creation"];
      flow_state_reader[label="Game Loader", color=red];
      flow_day_intro [label="Day Intro", color=red]
      flow_meal_select [label="Select Meal"];
      flow_meal_summary [label="Summarize Meal"];
      flow_activity_select [label="Select Activity"];
      flow_activity_summary[label="Summarize Activity"];
      flow_day_summary [label="Summarize Day"];
      
      # Non-demo flow
      flow_start -> flow_char_create [label="Start Game", color=red];
      flow_start -> flow_state_reader [label="Load Game", color=red];
      flow_state_reader -> flow_meal_select [color=red];
      flow_state_reader -> flow_activity_select [color=red];
      
      #Demo parts
      flow_char_create -> flow_day_intro;
      flow_meal_select -> flow_meal_summary [label="Breakfast"];
      flow_meal_summary -> flow_meal_select [label="Lunch"];
      flow_meal_select -> flow_meal_summary [label="Lunch"];
      flow_meal_select -> flow_meal_summary [label="Dinner"];
      flow_meal_summary -> flow_activity_select;
      flow_activity_select -> flow_activity_summary;
      flow_activity_summary -> flow_meal_select [label="Dinner"];
      flow_meal_summary -> flow_day_summary;
      flow_day_summary -> flow_day_intro;
      flow_day_intro -> flow_meal_select [label="Breakfast"];
}
-->
 </svg>
