<?xml version="1.0" encoding="UTF-8" standalone="no"?>
<!DOCTYPE svg PUBLIC "-//W3C//DTD SVG 1.1//EN"
 "http://www.w3.org/Graphics/SVG/1.1/DTD/svg11.dtd">
<!-- Generated by graphviz version 2.40.1 (20161225.0304)
 -->
<!-- Title: GameFlow Pages: 1 -->
<svg width="371pt" height="627pt"
 viewBox="0.00 0.00 371.46 627.20" xmlns="http://www.w3.org/2000/svg" xmlns:xlink="http://www.w3.org/1999/xlink">
<g id="graph0" class="graph" transform="scale(1 1) rotate(0) translate(4 623.2)">
<title>GameFlow</title>
<polygon fill="#ffffff" stroke="transparent" points="-4,4 -4,-623.2 367.4584,-623.2 367.4584,4 -4,4"/>
<text text-anchor="middle" x="181.7292" y="-8.2" font-family="Times,serif" font-size="14.00" fill="#000000">Game Flow</text>
<!-- flow_start -->
<g id="node1" class="node">
<title>flow_start</title>
<ellipse fill="none" stroke="#ff0000" cx="211.5169" cy="-601.2" rx="29.049" ry="18"/>
<text text-anchor="middle" x="211.5169" y="-597" font-family="Times,serif" font-size="14.00" fill="#000000">Start</text>
</g>
<!-- flow_char_create -->
<g id="node2" class="node">
<title>flow_char_create</title>
<ellipse fill="none" stroke="#000000" cx="156.5169" cy="-512.4" rx="65.4474" ry="18"/>
<text text-anchor="middle" x="156.5169" y="-508.2" font-family="Times,serif" font-size="14.00" fill="#000000">Char Creation</text>
</g>
<!-- flow_start&#45;&gt;flow_char_create -->
<g id="edge1" class="edge">
<title>flow_start&#45;&gt;flow_char_create</title>
<path fill="none" stroke="#ff0000" d="M198.1068,-584.7696C193.4587,-578.7688 188.362,-571.8261 184.1515,-565.2 178.991,-557.0789 173.9329,-547.8901 169.5839,-539.4811"/>
<polygon fill="#ff0000" stroke="#ff0000" points="172.6388,-537.766 165.0073,-530.4169 166.3902,-540.9211 172.6388,-537.766"/>
<text text-anchor="middle" x="216.1996" y="-552.6" font-family="Times,serif" font-size="14.00" fill="#000000">Start Game</text>
</g>
<!-- flow_state_reader -->
<g id="node3" class="node">
<title>flow_state_reader</title>
<ellipse fill="none" stroke="#ff0000" cx="265.5169" cy="-439.4" rx="63.7049" ry="18"/>
<text text-anchor="middle" x="265.5169" y="-435.2" font-family="Times,serif" font-size="14.00" fill="#000000">Game Loader</text>
</g>
<!-- flow_start&#45;&gt;flow_state_reader -->
<g id="edge2" class="edge">
<title>flow_start&#45;&gt;flow_state_reader</title>
<path fill="none" stroke="#ff0000" d="M230.1713,-586.892C236.6927,-580.9044 243.4051,-573.4215 247.5169,-565.2 262.9564,-534.3296 266.2476,-494.2085 266.4725,-467.6721"/>
<polygon fill="#ff0000" stroke="#ff0000" points="269.9717,-467.5168 266.4145,-457.537 262.9719,-467.5569 269.9717,-467.5168"/>
<text text-anchor="middle" x="297.3637" y="-508.2" font-family="Times,serif" font-size="14.00" fill="#000000">Load Game</text>
</g>
<!-- flow_day_intro -->
<g id="node4" class="node">
<title>flow_day_intro</title>
<ellipse fill="none" stroke="#ff0000" cx="135.5169" cy="-439.4" rx="48.1157" ry="18"/>
<text text-anchor="middle" x="135.5169" y="-435.2" font-family="Times,serif" font-size="14.00" fill="#000000">Day Intro</text>
</g>
<!-- flow_char_create&#45;&gt;flow_day_intro -->
<g id="edge5" class="edge">
<title>flow_char_create&#45;&gt;flow_day_intro</title>
<path fill="none" stroke="#000000" d="M151.3259,-494.3551C148.9785,-486.1951 146.1508,-476.3652 143.5397,-467.2887"/>
<polygon fill="#000000" stroke="#000000" points="146.8493,-466.133 140.721,-457.4904 140.1221,-468.0683 146.8493,-466.133"/>
</g>
<!-- flow_meal_select -->
<g id="node5" class="node">
<title>flow_meal_select</title>
<ellipse fill="none" stroke="#000000" cx="215.5169" cy="-350.6" rx="56.7756" ry="18"/>
<text text-anchor="middle" x="215.5169" y="-346.4" font-family="Times,serif" font-size="14.00" fill="#000000">Select Meal</text>
</g>
<!-- flow_state_reader&#45;&gt;flow_meal_select -->
<g id="edge3" class="edge">
<title>flow_state_reader&#45;&gt;flow_meal_select</title>
<path fill="none" stroke="#ff0000" d="M255.3987,-421.43C248.2827,-408.7919 238.6374,-391.662 230.6149,-377.414"/>
<polygon fill="#ff0000" stroke="#ff0000" points="233.5763,-375.5397 225.6201,-368.5433 227.4767,-378.9742 233.5763,-375.5397"/>
</g>
<!-- flow_activity_select -->
<g id="node7" class="node">
<title>flow_activity_select</title>
<ellipse fill="none" stroke="#000000" cx="215.5169" cy="-188.8" rx="68.8929" ry="18"/>
<text text-anchor="middle" x="215.5169" y="-184.6" font-family="Times,serif" font-size="14.00" fill="#000000">Select Activity</text>
</g>
<!-- flow_state_reader&#45;&gt;flow_activity_select -->
<g id="edge4" class="edge">
<title>flow_state_reader&#45;&gt;flow_activity_select</title>
<path fill="none" stroke="#ff0000" d="M290.2028,-422.6524C324.3518,-397.2388 379.5515,-346.7026 358.5169,-297.8 340.4573,-255.8137 296.2785,-226.1992 261.7652,-208.539"/>
<polygon fill="#ff0000" stroke="#ff0000" points="263.2851,-205.3861 252.7698,-204.0906 260.1822,-211.6608 263.2851,-205.3861"/>
</g>
<!-- flow_day_intro&#45;&gt;flow_meal_select -->
<g id="edge15" class="edge">
<title>flow_day_intro&#45;&gt;flow_meal_select</title>
<path fill="none" stroke="#000000" d="M148.6998,-421.804C156.7939,-411.3027 167.5569,-397.8629 177.8801,-386.6 181.4542,-382.7006 185.3602,-378.7034 189.2598,-374.8568"/>
<polygon fill="#000000" stroke="#000000" points="191.8986,-377.1742 196.6619,-367.7105 187.0366,-372.1382 191.8986,-377.1742"/>
<text text-anchor="middle" x="205.3353" y="-390.8" font-family="Times,serif" font-size="14.00" fill="#000000">Breakfast</text>
</g>
<!-- flow_meal_summary -->
<g id="node6" class="node">
<title>flow_meal_summary</title>
<ellipse fill="none" stroke="#000000" cx="215.5169" cy="-261.8" rx="77.0438" ry="18"/>
<text text-anchor="middle" x="215.5169" y="-257.6" font-family="Times,serif" font-size="14.00" fill="#000000">Summarize Meal</text>
</g>
<!-- flow_meal_select&#45;&gt;flow_meal_summary -->
<g id="edge6" class="edge">
<title>flow_meal_select&#45;&gt;flow_meal_summary</title>
<path fill="none" stroke="#000000" d="M240.2652,-334.1406C246.4002,-328.7114 252.1721,-322.1105 255.5169,-314.6 260.0403,-304.4434 255.4422,-294.4277 247.967,-285.895"/>
<polygon fill="#000000" stroke="#000000" points="250.3826,-283.3614 240.8142,-278.8121 245.4572,-288.3354 250.3826,-283.3614"/>
<text text-anchor="middle" x="283.3353" y="-302" font-family="Times,serif" font-size="14.00" fill="#000000">Breakfast</text>
</g>
<!-- flow_meal_select&#45;&gt;flow_meal_summary -->
<g id="edge8" class="edge">
<title>flow_meal_select&#45;&gt;flow_meal_summary</title>
<path fill="none" stroke="#000000" d="M260.7925,-339.5571C283.6296,-332.9759 307.8807,-324.0746 314.5169,-314.6 327.0462,-296.712 309.612,-284.3649 286.0566,-276.1365"/>
<polygon fill="#000000" stroke="#000000" points="286.9986,-272.7635 276.4083,-273.0741 284.8808,-279.4355 286.9986,-272.7635"/>
<text text-anchor="middle" x="336.4005" y="-302" font-family="Times,serif" font-size="14.00" fill="#000000">Lunch</text>
</g>
<!-- flow_meal_select&#45;&gt;flow_meal_summary -->
<g id="edge10" class="edge">
<title>flow_meal_select&#45;&gt;flow_meal_summary</title>
<path fill="none" stroke="#000000" d="M169.3364,-340.0074C145.3702,-333.4765 119.6521,-324.4765 112.6445,-314.6 99.4598,-296.0173 118.1876,-283.5334 143.1222,-275.3933"/>
<polygon fill="#000000" stroke="#000000" points="144.3382,-278.6833 152.9289,-272.4825 142.3463,-271.9727 144.3382,-278.6833"/>
<text text-anchor="middle" x="132.9531" y="-302" font-family="Times,serif" font-size="14.00" fill="#000000">Dinner</text>
</g>
<!-- flow_meal_summary&#45;&gt;flow_meal_select -->
<g id="edge7" class="edge">
<title>flow_meal_summary&#45;&gt;flow_meal_select</title>
<path fill="none" stroke="#000000" d="M178.7578,-277.6878C162.8705,-287.0211 149.5728,-299.8693 157.7497,-314.6 161.1793,-320.7782 166.1584,-326.0344 171.7762,-330.4621"/>
<polygon fill="#000000" stroke="#000000" points="170.1356,-333.5818 180.3577,-336.3675 174.1039,-327.8152 170.1356,-333.5818"/>
<text text-anchor="middle" x="176.4005" y="-302" font-family="Times,serif" font-size="14.00" fill="#000000">Lunch</text>
</g>
<!-- flow_meal_summary&#45;&gt;flow_meal_select -->
<g id="edge9" class="edge">
<title>flow_meal_summary&#45;&gt;flow_meal_select</title>
<path fill="none" stroke="#000000" d="M213.7735,-280.0972C213.3097,-285.7658 212.8741,-292.0363 212.6445,-297.8 212.3474,-305.2608 212.3474,-307.1392 212.6445,-314.6 212.7414,-317.0316 212.8749,-319.5533 213.0317,-322.082"/>
<polygon fill="#000000" stroke="#000000" points="209.5587,-322.5824 213.7735,-332.3028 216.5404,-322.0756 209.5587,-322.5824"/>
<text text-anchor="middle" x="231.9531" y="-302" font-family="Times,serif" font-size="14.00" fill="#000000">Dinner</text>
</g>
<!-- flow_meal_summary&#45;&gt;flow_activity_select -->
<g id="edge11" class="edge">
<title>flow_meal_summary&#45;&gt;flow_activity_select</title>
<path fill="none" stroke="#000000" d="M215.5169,-243.7551C215.5169,-235.6828 215.5169,-225.9764 215.5169,-216.9817"/>
<polygon fill="#000000" stroke="#000000" points="219.017,-216.8903 215.5169,-206.8904 212.017,-216.8904 219.017,-216.8903"/>
</g>
<!-- flow_activity_summary -->
<g id="node8" class="node">
<title>flow_activity_summary</title>
<ellipse fill="none" stroke="#000000" cx="196.5169" cy="-115.8" rx="89.1602" ry="18"/>
<text text-anchor="middle" x="196.5169" y="-111.6" font-family="Times,serif" font-size="14.00" fill="#000000">Summarize Activity</text>
</g>
<!-- flow_activity_select&#45;&gt;flow_activity_summary -->
<g id="edge12" class="edge">
<title>flow_activity_select&#45;&gt;flow_activity_summary</title>
<path fill="none" stroke="#000000" d="M210.8203,-170.7551C208.6965,-162.5951 206.138,-152.7652 203.7756,-143.6887"/>
<polygon fill="#000000" stroke="#000000" points="207.1314,-142.6863 201.2254,-133.8904 200.3571,-144.4496 207.1314,-142.6863"/>
</g>
<!-- flow_day_summary -->
<g id="node9" class="node">
<title>flow_day_summary</title>
<ellipse fill="none" stroke="#000000" cx="73.5169" cy="-42.8" rx="73.5339" ry="18"/>
<text text-anchor="middle" x="73.5169" y="-38.6" font-family="Times,serif" font-size="14.00" fill="#000000">Summarize Day</text>
</g>
<!-- flow_activity_summary&#45;&gt;flow_day_summary -->
<g id="edge13" class="edge">
<title>flow_activity_summary&#45;&gt;flow_day_summary</title>
<path fill="none" stroke="#000000" d="M167.6789,-98.6847C150.5931,-88.5444 128.7691,-75.592 110.4344,-64.7104"/>
<polygon fill="#000000" stroke="#000000" points="112.1359,-61.6502 101.7501,-59.5563 108.5633,-67.6699 112.1359,-61.6502"/>
</g>
<!-- flow_day_summary&#45;&gt;flow_day_intro -->
<g id="edge14" class="edge">
<title>flow_day_summary&#45;&gt;flow_day_intro</title>
<path fill="none" stroke="#000000" d="M68.8431,-60.9644C65.4737,-75.6522 61.5169,-96.9198 61.5169,-115.8 61.5169,-350.6 61.5169,-350.6 61.5169,-350.6 61.5169,-378.1151 82.7438,-401.6292 102.46,-417.5353"/>
<polygon fill="#000000" stroke="#000000" points="100.3971,-420.364 110.4639,-423.6672 104.6542,-414.8072 100.3971,-420.364"/>
</g>
</g>
<!-- Source:
digraph GameFlow {
    compound=true;
    label = "Game Flow";
      flow_start [label="Start", color=red];
      flow_char_create [label="Char Creation"];
      flow_state_reader[label="Game Loader", color=red];
      flow_day_intro [label="Day Intro", color=red]
      flow_meal_select [label="Select Meal"];
      flow_meal_summary [label="Summarize Meal"];
      flow_activity_select [label="Select Activity"];
      flow_activity_summary[label="Summarize Activity"];
      flow_day_summary [label="Summarize Day"];
      
      # Non-demo flow
      flow_start -> flow_char_create [label="Start Game", color=red];
      flow_start -> flow_state_reader [label="Load Game", color=red];
      flow_state_reader -> flow_meal_select [color=red];
      flow_state_reader -> flow_activity_select [color=red];
      
      #Demo parts
      flow_char_create -> flow_day_intro;
      flow_meal_select -> flow_meal_summary [label="Breakfast"];
      flow_meal_summary -> flow_meal_select [label="Lunch"];
      flow_meal_select -> flow_meal_summary [label="Lunch"];
      flow_meal_summary -> flow_meal_select [label="Dinner"];
      flow_meal_select -> flow_meal_summary [label="Dinner"];
      flow_meal_summary -> flow_activity_select;
      flow_activity_select -> flow_activity_summary;
      flow_activity_summary -> flow_day_summary;
      flow_day_summary -> flow_day_intro;
      flow_day_intro -> flow_meal_select [label="Breakfast"];
}
-->
</svg>

